<svg xmlns="http://www.w3.org/2000/svg" xml:space="preserve" xmlns:xlink="http://www.w3.org/1999/xlink" width="320" height="320" style="width: 320px; max-width: 100%;" viewBox="0 0 320 320">
<desc></desc>
<defs>
<rect id="p" width="11.034482758621" height="11.034482758621" />
</defs>
<g fill="#000000">
<use x="0" y="0" xlink:href="#p" />
<use x="11.034482758621" y="0" xlink:href="#p" />
<use x="22.068965517241" y="0" xlink:href="#p" />
<use x="33.103448275862" y="0" xlink:href="#p" />
<use x="44.137931034483" y="0" xlink:href="#p" />
<use x="55.172413793103" y="0" xlink:href="#p" />
<use x="66.206896551724" y="0" xlink:href="#p" />
<use x="99.310344827586" y="0" xlink:href="#p" />
<use x="143.44827586207" y="0" xlink:href="#p" />
<use x="187.58620689655" y="0" xlink:href="#p" />
<use x="209.65517241379" y="0" xlink:href="#p" />
<use x="220.68965517241" y="0" xlink:href="#p" />
<use x="242.75862068966" y="0" xlink:href="#p" />
<use x="253.79310344828" y="0" xlink:href="#p" />
<use x="264.8275862069" y="0" xlink:href="#p" />
<use x="275.86206896552" y="0" xlink:href="#p" />
<use x="286.89655172414" y="0" xlink:href="#p" />
<use x="297.93103448276" y="0" xlink:href="#p" />
<use x="308.96551724138" y="0" xlink:href="#p" />
<use x="0" y="11.034482758621" xlink:href="#p" />
<use x="66.206896551724" y="11.034482758621" xlink:href="#p" />
<use x="88.275862068966" y="11.034482758621" xlink:href="#p" />
<use x="99.310344827586" y="11.034482758621" xlink:href="#p" />
<use x="121.37931034483" y="11.034482758621" xlink:href="#p" />
<use x="132.41379310345" y="11.034482758621" xlink:href="#p" />
<use x="143.44827586207" y="11.034482758621" xlink:href="#p" />
<use x="154.48275862069" y="11.034482758621" xlink:href="#p" />
<use x="165.51724137931" y="11.034482758621" xlink:href="#p" />
<use x="176.55172413793" y="11.034482758621" xlink:href="#p" />
<use x="198.62068965517" y="11.034482758621" xlink:href="#p" />
<use x="220.68965517241" y="11.034482758621" xlink:href="#p" />
<use x="242.75862068966" y="11.034482758621" xlink:href="#p" />
<use x="308.96551724138" y="11.034482758621" xlink:href="#p" />
<use x="0" y="22.068965517241" xlink:href="#p" />
<use x="22.068965517241" y="22.068965517241" xlink:href="#p" />
<use x="33.103448275862" y="22.068965517241" xlink:href="#p" />
<use x="44.137931034483" y="22.068965517241" xlink:href="#p" />
<use x="66.206896551724" y="22.068965517241" xlink:href="#p" />
<use x="99.310344827586" y="22.068965517241" xlink:href="#p" />
<use x="110.34482758621" y="22.068965517241" xlink:href="#p" />
<use x="121.37931034483" y="22.068965517241" xlink:href="#p" />
<use x="154.48275862069" y="22.068965517241" xlink:href="#p" />
<use x="220.68965517241" y="22.068965517241" xlink:href="#p" />
<use x="242.75862068966" y="22.068965517241" xlink:href="#p" />
<use x="264.8275862069" y="22.068965517241" xlink:href="#p" />
<use x="275.86206896552" y="22.068965517241" xlink:href="#p" />
<use x="286.89655172414" y="22.068965517241" xlink:href="#p" />
<use x="308.96551724138" y="22.068965517241" xlink:href="#p" />
<use x="0" y="33.103448275862" xlink:href="#p" />
<use x="22.068965517241" y="33.103448275862" xlink:href="#p" />
<use x="33.103448275862" y="33.103448275862" xlink:href="#p" />
<use x="44.137931034483" y="33.103448275862" xlink:href="#p" />
<use x="66.206896551724" y="33.103448275862" xlink:href="#p" />
<use x="88.275862068966" y="33.103448275862" xlink:href="#p" />
<use x="99.310344827586" y="33.103448275862" xlink:href="#p" />
<use x="121.37931034483" y="33.103448275862" xlink:href="#p" />
<use x="165.51724137931" y="33.103448275862" xlink:href="#p" />
<use x="176.55172413793" y="33.103448275862" xlink:href="#p" />
<use x="187.58620689655" y="33.103448275862" xlink:href="#p" />
<use x="198.62068965517" y="33.103448275862" xlink:href="#p" />
<use x="242.75862068966" y="33.103448275862" xlink:href="#p" />
<use x="264.8275862069" y="33.103448275862" xlink:href="#p" />
<use x="275.86206896552" y="33.103448275862" xlink:href="#p" />
<use x="286.89655172414" y="33.103448275862" xlink:href="#p" />
<use x="308.96551724138" y="33.103448275862" xlink:href="#p" />
<use x="0" y="44.137931034483" xlink:href="#p" />
<use x="22.068965517241" y="44.137931034483" xlink:href="#p" />
<use x="33.103448275862" y="44.137931034483" xlink:href="#p" />
<use x="44.137931034483" y="44.137931034483" xlink:href="#p" />
<use x="66.206896551724" y="44.137931034483" xlink:href="#p" />
<use x="110.34482758621" y="44.137931034483" xlink:href="#p" />
<use x="132.41379310345" y="44.137931034483" xlink:href="#p" />
<use x="143.44827586207" y="44.137931034483" xlink:href="#p" />
<use x="176.55172413793" y="44.137931034483" xlink:href="#p" />
<use x="187.58620689655" y="44.137931034483" xlink:href="#p" />
<use x="198.62068965517" y="44.137931034483" xlink:href="#p" />
<use x="209.65517241379" y="44.137931034483" xlink:href="#p" />
<use x="220.68965517241" y="44.137931034483" xlink:href="#p" />
<use x="242.75862068966" y="44.137931034483" xlink:href="#p" />
<use x="264.8275862069" y="44.137931034483" xlink:href="#p" />
<use x="275.86206896552" y="44.137931034483" xlink:href="#p" />
<use x="286.89655172414" y="44.137931034483" xlink:href="#p" />
<use x="308.96551724138" y="44.137931034483" xlink:href="#p" />
<use x="0" y="55.172413793103" xlink:href="#p" />
<use x="66.206896551724" y="55.172413793103" xlink:href="#p" />
<use x="88.275862068966" y="55.172413793103" xlink:href="#p" />
<use x="110.34482758621" y="55.172413793103" xlink:href="#p" />
<use x="143.44827586207" y="55.172413793103" xlink:href="#p" />
<use x="154.48275862069" y="55.172413793103" xlink:href="#p" />
<use x="165.51724137931" y="55.172413793103" xlink:href="#p" />
<use x="187.58620689655" y="55.172413793103" xlink:href="#p" />
<use x="242.75862068966" y="55.172413793103" xlink:href="#p" />
<use x="308.96551724138" y="55.172413793103" xlink:href="#p" />
<use x="0" y="66.206896551724" xlink:href="#p" />
<use x="11.034482758621" y="66.206896551724" xlink:href="#p" />
<use x="22.068965517241" y="66.206896551724" xlink:href="#p" />
<use x="33.103448275862" y="66.206896551724" xlink:href="#p" />
<use x="44.137931034483" y="66.206896551724" xlink:href="#p" />
<use x="55.172413793103" y="66.206896551724" xlink:href="#p" />
<use x="66.206896551724" y="66.206896551724" xlink:href="#p" />
<use x="88.275862068966" y="66.206896551724" xlink:href="#p" />
<use x="110.34482758621" y="66.206896551724" xlink:href="#p" />
<use x="132.41379310345" y="66.206896551724" xlink:href="#p" />
<use x="154.48275862069" y="66.206896551724" xlink:href="#p" />
<use x="176.55172413793" y="66.206896551724" xlink:href="#p" />
<use x="198.62068965517" y="66.206896551724" xlink:href="#p" />
<use x="220.68965517241" y="66.206896551724" xlink:href="#p" />
<use x="242.75862068966" y="66.206896551724" xlink:href="#p" />
<use x="253.79310344828" y="66.206896551724" xlink:href="#p" />
<use x="264.8275862069" y="66.206896551724" xlink:href="#p" />
<use x="275.86206896552" y="66.206896551724" xlink:href="#p" />
<use x="286.89655172414" y="66.206896551724" xlink:href="#p" />
<use x="297.93103448276" y="66.206896551724" xlink:href="#p" />
<use x="308.96551724138" y="66.206896551724" xlink:href="#p" />
<use x="132.41379310345" y="77.241379310345" xlink:href="#p" />
<use x="143.44827586207" y="77.241379310345" xlink:href="#p" />
<use x="165.51724137931" y="77.241379310345" xlink:href="#p" />
<use x="176.55172413793" y="77.241379310345" xlink:href="#p" />
<use x="198.62068965517" y="77.241379310345" xlink:href="#p" />
<use x="209.65517241379" y="77.241379310345" xlink:href="#p" />
<use x="220.68965517241" y="77.241379310345" xlink:href="#p" />
<use x="0" y="88.275862068966" xlink:href="#p" />
<use x="11.034482758621" y="88.275862068966" xlink:href="#p" />
<use x="22.068965517241" y="88.275862068966" xlink:href="#p" />
<use x="33.103448275862" y="88.275862068966" xlink:href="#p" />
<use x="44.137931034483" y="88.275862068966" xlink:href="#p" />
<use x="66.206896551724" y="88.275862068966" xlink:href="#p" />
<use x="77.241379310345" y="88.275862068966" xlink:href="#p" />
<use x="88.275862068966" y="88.275862068966" xlink:href="#p" />
<use x="99.310344827586" y="88.275862068966" xlink:href="#p" />
<use x="110.34482758621" y="88.275862068966" xlink:href="#p" />
<use x="132.41379310345" y="88.275862068966" xlink:href="#p" />
<use x="154.48275862069" y="88.275862068966" xlink:href="#p" />
<use x="165.51724137931" y="88.275862068966" xlink:href="#p" />
<use x="176.55172413793" y="88.275862068966" xlink:href="#p" />
<use x="187.58620689655" y="88.275862068966" xlink:href="#p" />
<use x="220.68965517241" y="88.275862068966" xlink:href="#p" />
<use x="231.72413793103" y="88.275862068966" xlink:href="#p" />
<use x="253.79310344828" y="88.275862068966" xlink:href="#p" />
<use x="275.86206896552" y="88.275862068966" xlink:href="#p" />
<use x="297.93103448276" y="88.275862068966" xlink:href="#p" />
<use x="33.103448275862" y="99.310344827586" xlink:href="#p" />
<use x="44.137931034483" y="99.310344827586" xlink:href="#p" />
<use x="55.172413793103" y="99.310344827586" xlink:href="#p" />
<use x="77.241379310345" y="99.310344827586" xlink:href="#p" />
<use x="99.310344827586" y="99.310344827586" xlink:href="#p" />
<use x="176.55172413793" y="99.310344827586" xlink:href="#p" />
<use x="198.62068965517" y="99.310344827586" xlink:href="#p" />
<use x="209.65517241379" y="99.310344827586" xlink:href="#p" />
<use x="220.68965517241" y="99.310344827586" xlink:href="#p" />
<use x="242.75862068966" y="99.310344827586" xlink:href="#p" />
<use x="253.79310344828" y="99.310344827586" xlink:href="#p" />
<use x="264.8275862069" y="99.310344827586" xlink:href="#p" />
<use x="308.96551724138" y="99.310344827586" xlink:href="#p" />
<use x="0" y="110.34482758621" xlink:href="#p" />
<use x="22.068965517241" y="110.34482758621" xlink:href="#p" />
<use x="33.103448275862" y="110.34482758621" xlink:href="#p" />
<use x="44.137931034483" y="110.34482758621" xlink:href="#p" />
<use x="55.172413793103" y="110.34482758621" xlink:href="#p" />
<use x="66.206896551724" y="110.34482758621" xlink:href="#p" />
<use x="77.241379310345" y="110.34482758621" xlink:href="#p" />
<use x="88.275862068966" y="110.34482758621" xlink:href="#p" />
<use x="99.310344827586" y="110.34482758621" xlink:href="#p" />
<use x="121.37931034483" y="110.34482758621" xlink:href="#p" />
<use x="132.41379310345" y="110.34482758621" xlink:href="#p" />
<use x="165.51724137931" y="110.34482758621" xlink:href="#p" />
<use x="176.55172413793" y="110.34482758621" xlink:href="#p" />
<use x="231.72413793103" y="110.34482758621" xlink:href="#p" />
<use x="0" y="121.37931034483" xlink:href="#p" />
<use x="11.034482758621" y="121.37931034483" xlink:href="#p" />
<use x="44.137931034483" y="121.37931034483" xlink:href="#p" />
<use x="77.241379310345" y="121.37931034483" xlink:href="#p" />
<use x="99.310344827586" y="121.37931034483" xlink:href="#p" />
<use x="110.34482758621" y="121.37931034483" xlink:href="#p" />
<use x="121.37931034483" y="121.37931034483" xlink:href="#p" />
<use x="154.48275862069" y="121.37931034483" xlink:href="#p" />
<use x="165.51724137931" y="121.37931034483" xlink:href="#p" />
<use x="198.62068965517" y="121.37931034483" xlink:href="#p" />
<use x="209.65517241379" y="121.37931034483" xlink:href="#p" />
<use x="242.75862068966" y="121.37931034483" xlink:href="#p" />
<use x="253.79310344828" y="121.37931034483" xlink:href="#p" />
<use x="275.86206896552" y="121.37931034483" xlink:href="#p" />
<use x="297.93103448276" y="121.37931034483" xlink:href="#p" />
<use x="11.034482758621" y="132.41379310345" xlink:href="#p" />
<use x="22.068965517241" y="132.41379310345" xlink:href="#p" />
<use x="33.103448275862" y="132.41379310345" xlink:href="#p" />
<use x="66.206896551724" y="132.41379310345" xlink:href="#p" />
<use x="99.310344827586" y="132.41379310345" xlink:href="#p" />
<use x="121.37931034483" y="132.41379310345" xlink:href="#p" />
<use x="165.51724137931" y="132.41379310345" xlink:href="#p" />
<use x="187.58620689655" y="132.41379310345" xlink:href="#p" />
<use x="220.68965517241" y="132.41379310345" xlink:href="#p" />
<use x="275.86206896552" y="132.41379310345" xlink:href="#p" />
<use x="286.89655172414" y="132.41379310345" xlink:href="#p" />
<use x="0" y="143.44827586207" xlink:href="#p" />
<use x="22.068965517241" y="143.44827586207" xlink:href="#p" />
<use x="33.103448275862" y="143.44827586207" xlink:href="#p" />
<use x="44.137931034483" y="143.44827586207" xlink:href="#p" />
<use x="55.172413793103" y="143.44827586207" xlink:href="#p" />
<use x="77.241379310345" y="143.44827586207" xlink:href="#p" />
<use x="88.275862068966" y="143.44827586207" xlink:href="#p" />
<use x="110.34482758621" y="143.44827586207" xlink:href="#p" />
<use x="132.41379310345" y="143.44827586207" xlink:href="#p" />
<use x="143.44827586207" y="143.44827586207" xlink:href="#p" />
<use x="154.48275862069" y="143.44827586207" xlink:href="#p" />
<use x="176.55172413793" y="143.44827586207" xlink:href="#p" />
<use x="198.62068965517" y="143.44827586207" xlink:href="#p" />
<use x="209.65517241379" y="143.44827586207" xlink:href="#p" />
<use x="220.68965517241" y="143.44827586207" xlink:href="#p" />
<use x="231.72413793103" y="143.44827586207" xlink:href="#p" />
<use x="242.75862068966" y="143.44827586207" xlink:href="#p" />
<use x="264.8275862069" y="143.44827586207" xlink:href="#p" />
<use x="308.96551724138" y="143.44827586207" xlink:href="#p" />
<use x="0" y="154.48275862069" xlink:href="#p" />
<use x="11.034482758621" y="154.48275862069" xlink:href="#p" />
<use x="66.206896551724" y="154.48275862069" xlink:href="#p" />
<use x="88.275862068966" y="154.48275862069" xlink:href="#p" />
<use x="99.310344827586" y="154.48275862069" xlink:href="#p" />
<use x="110.34482758621" y="154.48275862069" xlink:href="#p" />
<use x="143.44827586207" y="154.48275862069" xlink:href="#p" />
<use x="154.48275862069" y="154.48275862069" xlink:href="#p" />
<use x="165.51724137931" y="154.48275862069" xlink:href="#p" />
<use x="176.55172413793" y="154.48275862069" xlink:href="#p" />
<use x="220.68965517241" y="154.48275862069" xlink:href="#p" />
<use x="242.75862068966" y="154.48275862069" xlink:href="#p" />
<use x="253.79310344828" y="154.48275862069" xlink:href="#p" />
<use x="275.86206896552" y="154.48275862069" xlink:href="#p" />
<use x="286.89655172414" y="154.48275862069" xlink:href="#p" />
<use x="0" y="165.51724137931" xlink:href="#p" />
<use x="55.172413793103" y="165.51724137931" xlink:href="#p" />
<use x="110.34482758621" y="165.51724137931" xlink:href="#p" />
<use x="132.41379310345" y="165.51724137931" xlink:href="#p" />
<use x="143.44827586207" y="165.51724137931" xlink:href="#p" />
<use x="220.68965517241" y="165.51724137931" xlink:href="#p" />
<use x="242.75862068966" y="165.51724137931" xlink:href="#p" />
<use x="253.79310344828" y="165.51724137931" xlink:href="#p" />
<use x="264.8275862069" y="165.51724137931" xlink:href="#p" />
<use x="297.93103448276" y="165.51724137931" xlink:href="#p" />
<use x="22.068965517241" y="176.55172413793" xlink:href="#p" />
<use x="44.137931034483" y="176.55172413793" xlink:href="#p" />
<use x="66.206896551724" y="176.55172413793" xlink:href="#p" />
<use x="88.275862068966" y="176.55172413793" xlink:href="#p" />
<use x="110.34482758621" y="176.55172413793" xlink:href="#p" />
<use x="132.41379310345" y="176.55172413793" xlink:href="#p" />
<use x="154.48275862069" y="176.55172413793" xlink:href="#p" />
<use x="165.51724137931" y="176.55172413793" xlink:href="#p" />
<use x="176.55172413793" y="176.55172413793" xlink:href="#p" />
<use x="187.58620689655" y="176.55172413793" xlink:href="#p" />
<use x="198.62068965517" y="176.55172413793" xlink:href="#p" />
<use x="220.68965517241" y="176.55172413793" xlink:href="#p" />
<use x="253.79310344828" y="176.55172413793" xlink:href="#p" />
<use x="275.86206896552" y="176.55172413793" xlink:href="#p" />
<use x="286.89655172414" y="176.55172413793" xlink:href="#p" />
<use x="0" y="187.58620689655" xlink:href="#p" />
<use x="11.034482758621" y="187.58620689655" xlink:href="#p" />
<use x="22.068965517241" y="187.58620689655" xlink:href="#p" />
<use x="55.172413793103" y="187.58620689655" xlink:href="#p" />
<use x="77.241379310345" y="187.58620689655" xlink:href="#p" />
<use x="110.34482758621" y="187.58620689655" xlink:href="#p" />
<use x="176.55172413793" y="187.58620689655" xlink:href="#p" />
<use x="187.58620689655" y="187.58620689655" xlink:href="#p" />
<use x="198.62068965517" y="187.58620689655" xlink:href="#p" />
<use x="209.65517241379" y="187.58620689655" xlink:href="#p" />
<use x="220.68965517241" y="187.58620689655" xlink:href="#p" />
<use x="242.75862068966" y="187.58620689655" xlink:href="#p" />
<use x="253.79310344828" y="187.58620689655" xlink:href="#p" />
<use x="264.8275862069" y="187.58620689655" xlink:href="#p" />
<use x="286.89655172414" y="187.58620689655" xlink:href="#p" />
<use x="308.96551724138" y="187.58620689655" xlink:href="#p" />
<use x="0" y="198.62068965517" xlink:href="#p" />
<use x="44.137931034483" y="198.62068965517" xlink:href="#p" />
<use x="66.206896551724" y="198.62068965517" xlink:href="#p" />
<use x="88.275862068966" y="198.62068965517" xlink:href="#p" />
<use x="110.34482758621" y="198.62068965517" xlink:href="#p" />
<use x="121.37931034483" y="198.62068965517" xlink:href="#p" />
<use x="132.41379310345" y="198.62068965517" xlink:href="#p" />
<use x="165.51724137931" y="198.62068965517" xlink:href="#p" />
<use x="176.55172413793" y="198.62068965517" xlink:href="#p" />
<use x="187.58620689655" y="198.62068965517" xlink:href="#p" />
<use x="220.68965517241" y="198.62068965517" xlink:href="#p" />
<use x="231.72413793103" y="198.62068965517" xlink:href="#p" />
<use x="253.79310344828" y="198.62068965517" xlink:href="#p" />
<use x="286.89655172414" y="198.62068965517" xlink:href="#p" />
<use x="0" y="209.65517241379" xlink:href="#p" />
<use x="44.137931034483" y="209.65517241379" xlink:href="#p" />
<use x="55.172413793103" y="209.65517241379" xlink:href="#p" />
<use x="88.275862068966" y="209.65517241379" xlink:href="#p" />
<use x="99.310344827586" y="209.65517241379" xlink:href="#p" />
<use x="110.34482758621" y="209.65517241379" xlink:href="#p" />
<use x="121.37931034483" y="209.65517241379" xlink:href="#p" />
<use x="154.48275862069" y="209.65517241379" xlink:href="#p" />
<use x="165.51724137931" y="209.65517241379" xlink:href="#p" />
<use x="176.55172413793" y="209.65517241379" xlink:href="#p" />
<use x="209.65517241379" y="209.65517241379" xlink:href="#p" />
<use x="242.75862068966" y="209.65517241379" xlink:href="#p" />
<use x="253.79310344828" y="209.65517241379" xlink:href="#p" />
<use x="264.8275862069" y="209.65517241379" xlink:href="#p" />
<use x="297.93103448276" y="209.65517241379" xlink:href="#p" />
<use x="0" y="220.68965517241" xlink:href="#p" />
<use x="44.137931034483" y="220.68965517241" xlink:href="#p" />
<use x="66.206896551724" y="220.68965517241" xlink:href="#p" />
<use x="77.241379310345" y="220.68965517241" xlink:href="#p" />
<use x="88.275862068966" y="220.68965517241" xlink:href="#p" />
<use x="121.37931034483" y="220.68965517241" xlink:href="#p" />
<use x="187.58620689655" y="220.68965517241" xlink:href="#p" />
<use x="220.68965517241" y="220.68965517241" xlink:href="#p" />
<use x="231.72413793103" y="220.68965517241" xlink:href="#p" />
<use x="242.75862068966" y="220.68965517241" xlink:href="#p" />
<use x="253.79310344828" y="220.68965517241" xlink:href="#p" />
<use x="264.8275862069" y="220.68965517241" xlink:href="#p" />
<use x="286.89655172414" y="220.68965517241" xlink:href="#p" />
<use x="297.93103448276" y="220.68965517241" xlink:href="#p" />
<use x="308.96551724138" y="220.68965517241" xlink:href="#p" />
<use x="88.275862068966" y="231.72413793103" xlink:href="#p" />
<use x="99.310344827586" y="231.72413793103" xlink:href="#p" />
<use x="110.34482758621" y="231.72413793103" xlink:href="#p" />
<use x="132.41379310345" y="231.72413793103" xlink:href="#p" />
<use x="143.44827586207" y="231.72413793103" xlink:href="#p" />
<use x="154.48275862069" y="231.72413793103" xlink:href="#p" />
<use x="209.65517241379" y="231.72413793103" xlink:href="#p" />
<use x="220.68965517241" y="231.72413793103" xlink:href="#p" />
<use x="264.8275862069" y="231.72413793103" xlink:href="#p" />
<use x="275.86206896552" y="231.72413793103" xlink:href="#p" />
<use x="286.89655172414" y="231.72413793103" xlink:href="#p" />
<use x="297.93103448276" y="231.72413793103" xlink:href="#p" />
<use x="308.96551724138" y="231.72413793103" xlink:href="#p" />
<use x="0" y="242.75862068966" xlink:href="#p" />
<use x="11.034482758621" y="242.75862068966" xlink:href="#p" />
<use x="22.068965517241" y="242.75862068966" xlink:href="#p" />
<use x="33.103448275862" y="242.75862068966" xlink:href="#p" />
<use x="44.137931034483" y="242.75862068966" xlink:href="#p" />
<use x="55.172413793103" y="242.75862068966" xlink:href="#p" />
<use x="66.206896551724" y="242.75862068966" xlink:href="#p" />
<use x="88.275862068966" y="242.75862068966" xlink:href="#p" />
<use x="99.310344827586" y="242.75862068966" xlink:href="#p" />
<use x="110.34482758621" y="242.75862068966" xlink:href="#p" />
<use x="143.44827586207" y="242.75862068966" xlink:href="#p" />
<use x="154.48275862069" y="242.75862068966" xlink:href="#p" />
<use x="165.51724137931" y="242.75862068966" xlink:href="#p" />
<use x="187.58620689655" y="242.75862068966" xlink:href="#p" />
<use x="198.62068965517" y="242.75862068966" xlink:href="#p" />
<use x="209.65517241379" y="242.75862068966" xlink:href="#p" />
<use x="220.68965517241" y="242.75862068966" xlink:href="#p" />
<use x="242.75862068966" y="242.75862068966" xlink:href="#p" />
<use x="264.8275862069" y="242.75862068966" xlink:href="#p" />
<use x="275.86206896552" y="242.75862068966" xlink:href="#p" />
<use x="286.89655172414" y="242.75862068966" xlink:href="#p" />
<use x="0" y="253.79310344828" xlink:href="#p" />
<use x="66.206896551724" y="253.79310344828" xlink:href="#p" />
<use x="99.310344827586" y="253.79310344828" xlink:href="#p" />
<use x="132.41379310345" y="253.79310344828" xlink:href="#p" />
<use x="143.44827586207" y="253.79310344828" xlink:href="#p" />
<use x="176.55172413793" y="253.79310344828" xlink:href="#p" />
<use x="209.65517241379" y="253.79310344828" xlink:href="#p" />
<use x="220.68965517241" y="253.79310344828" xlink:href="#p" />
<use x="264.8275862069" y="253.79310344828" xlink:href="#p" />
<use x="0" y="264.8275862069" xlink:href="#p" />
<use x="22.068965517241" y="264.8275862069" xlink:href="#p" />
<use x="33.103448275862" y="264.8275862069" xlink:href="#p" />
<use x="44.137931034483" y="264.8275862069" xlink:href="#p" />
<use x="66.206896551724" y="264.8275862069" xlink:href="#p" />
<use x="88.275862068966" y="264.8275862069" xlink:href="#p" />
<use x="132.41379310345" y="264.8275862069" xlink:href="#p" />
<use x="154.48275862069" y="264.8275862069" xlink:href="#p" />
<use x="165.51724137931" y="264.8275862069" xlink:href="#p" />
<use x="187.58620689655" y="264.8275862069" xlink:href="#p" />
<use x="220.68965517241" y="264.8275862069" xlink:href="#p" />
<use x="231.72413793103" y="264.8275862069" xlink:href="#p" />
<use x="242.75862068966" y="264.8275862069" xlink:href="#p" />
<use x="253.79310344828" y="264.8275862069" xlink:href="#p" />
<use x="264.8275862069" y="264.8275862069" xlink:href="#p" />
<use x="286.89655172414" y="264.8275862069" xlink:href="#p" />
<use x="0" y="275.86206896552" xlink:href="#p" />
<use x="22.068965517241" y="275.86206896552" xlink:href="#p" />
<use x="33.103448275862" y="275.86206896552" xlink:href="#p" />
<use x="44.137931034483" y="275.86206896552" xlink:href="#p" />
<use x="66.206896551724" y="275.86206896552" xlink:href="#p" />
<use x="88.275862068966" y="275.86206896552" xlink:href="#p" />
<use x="176.55172413793" y="275.86206896552" xlink:href="#p" />
<use x="209.65517241379" y="275.86206896552" xlink:href="#p" />
<use x="253.79310344828" y="275.86206896552" xlink:href="#p" />
<use x="275.86206896552" y="275.86206896552" xlink:href="#p" />
<use x="286.89655172414" y="275.86206896552" xlink:href="#p" />
<use x="297.93103448276" y="275.86206896552" xlink:href="#p" />
<use x="308.96551724138" y="275.86206896552" xlink:href="#p" />
<use x="0" y="286.89655172414" xlink:href="#p" />
<use x="22.068965517241" y="286.89655172414" xlink:href="#p" />
<use x="33.103448275862" y="286.89655172414" xlink:href="#p" />
<use x="44.137931034483" y="286.89655172414" xlink:href="#p" />
<use x="66.206896551724" y="286.89655172414" xlink:href="#p" />
<use x="88.275862068966" y="286.89655172414" xlink:href="#p" />
<use x="99.310344827586" y="286.89655172414" xlink:href="#p" />
<use x="121.37931034483" y="286.89655172414" xlink:href="#p" />
<use x="132.41379310345" y="286.89655172414" xlink:href="#p" />
<use x="165.51724137931" y="286.89655172414" xlink:href="#p" />
<use x="176.55172413793" y="286.89655172414" xlink:href="#p" />
<use x="198.62068965517" y="286.89655172414" xlink:href="#p" />
<use x="220.68965517241" y="286.89655172414" xlink:href="#p" />
<use x="231.72413793103" y="286.89655172414" xlink:href="#p" />
<use x="242.75862068966" y="286.89655172414" xlink:href="#p" />
<use x="253.79310344828" y="286.89655172414" xlink:href="#p" />
<use x="264.8275862069" y="286.89655172414" xlink:href="#p" />
<use x="275.86206896552" y="286.89655172414" xlink:href="#p" />
<use x="286.89655172414" y="286.89655172414" xlink:href="#p" />
<use x="297.93103448276" y="286.89655172414" xlink:href="#p" />
<use x="0" y="297.93103448276" xlink:href="#p" />
<use x="66.206896551724" y="297.93103448276" xlink:href="#p" />
<use x="88.275862068966" y="297.93103448276" xlink:href="#p" />
<use x="121.37931034483" y="297.93103448276" xlink:href="#p" />
<use x="154.48275862069" y="297.93103448276" xlink:href="#p" />
<use x="165.51724137931" y="297.93103448276" xlink:href="#p" />
<use x="176.55172413793" y="297.93103448276" xlink:href="#p" />
<use x="220.68965517241" y="297.93103448276" xlink:href="#p" />
<use x="231.72413793103" y="297.93103448276" xlink:href="#p" />
<use x="253.79310344828" y="297.93103448276" xlink:href="#p" />
<use x="275.86206896552" y="297.93103448276" xlink:href="#p" />
<use x="297.93103448276" y="297.93103448276" xlink:href="#p" />
<use x="0" y="308.96551724138" xlink:href="#p" />
<use x="11.034482758621" y="308.96551724138" xlink:href="#p" />
<use x="22.068965517241" y="308.96551724138" xlink:href="#p" />
<use x="33.103448275862" y="308.96551724138" xlink:href="#p" />
<use x="44.137931034483" y="308.96551724138" xlink:href="#p" />
<use x="55.172413793103" y="308.96551724138" xlink:href="#p" />
<use x="66.206896551724" y="308.96551724138" xlink:href="#p" />
<use x="88.275862068966" y="308.96551724138" xlink:href="#p" />
<use x="99.310344827586" y="308.96551724138" xlink:href="#p" />
<use x="110.34482758621" y="308.96551724138" xlink:href="#p" />
<use x="121.37931034483" y="308.96551724138" xlink:href="#p" />
<use x="187.58620689655" y="308.96551724138" xlink:href="#p" />
<use x="209.65517241379" y="308.96551724138" xlink:href="#p" />
<use x="242.75862068966" y="308.96551724138" xlink:href="#p" />
<use x="253.79310344828" y="308.96551724138" xlink:href="#p" />
<use x="264.8275862069" y="308.96551724138" xlink:href="#p" />
<use x="275.86206896552" y="308.96551724138" xlink:href="#p" />
<use x="286.89655172414" y="308.96551724138" xlink:href="#p" />
</g>
</svg>